<mxfile host="Electron" agent="Mozilla/5.0 (Windows NT 10.0; Win64; x64) AppleWebKit/537.36 (KHTML, like Gecko) draw.io/28.0.6 Chrome/138.0.7204.100 Electron/37.2.3 Safari/537.36" version="28.0.6">
  <diagram name="Page-1" id="Hm99PX1JKgxj8fwdtRwT">
    <mxGraphModel dx="2453" dy="2063" grid="1" gridSize="10" guides="1" tooltips="1" connect="1" arrows="1" fold="1" page="1" pageScale="1" pageWidth="850" pageHeight="1100" math="0" shadow="0">
      <root>
        <mxCell id="0" />
        <mxCell id="1" parent="0" />
        <mxCell id="OM5P2h9avd_9MFhmdvht-44" style="edgeStyle=orthogonalEdgeStyle;rounded=0;orthogonalLoop=1;jettySize=auto;html=1;exitX=0.67;exitY=1;exitDx=0;exitDy=0;exitPerimeter=0;entryX=0;entryY=0.5;entryDx=0;entryDy=0;" edge="1" parent="1" source="OM5P2h9avd_9MFhmdvht-2" target="OM5P2h9avd_9MFhmdvht-42">
          <mxGeometry relative="1" as="geometry" />
        </mxCell>
        <mxCell id="OM5P2h9avd_9MFhmdvht-2" value="Clients" style="points=[[0.35,0,0],[0.98,0.51,0],[1,0.71,0],[0.67,1,0],[0,0.795,0],[0,0.65,0]];verticalLabelPosition=bottom;sketch=0;html=1;verticalAlign=top;aspect=fixed;align=center;pointerEvents=1;shape=mxgraph.cisco19.user;fillColor=#005073;strokeColor=none;" vertex="1" parent="1">
          <mxGeometry x="-100" y="274.75" width="50" height="50" as="geometry" />
        </mxCell>
        <mxCell id="OM5P2h9avd_9MFhmdvht-3" style="edgeStyle=orthogonalEdgeStyle;rounded=0;orthogonalLoop=1;jettySize=auto;html=1;exitX=0.5;exitY=0;exitDx=0;exitDy=0;exitPerimeter=0;" edge="1" parent="1" source="OM5P2h9avd_9MFhmdvht-7" target="OM5P2h9avd_9MFhmdvht-8">
          <mxGeometry relative="1" as="geometry" />
        </mxCell>
        <mxCell id="OM5P2h9avd_9MFhmdvht-5" style="edgeStyle=orthogonalEdgeStyle;rounded=0;orthogonalLoop=1;jettySize=auto;html=1;exitX=0.5;exitY=1;exitDx=0;exitDy=0;exitPerimeter=0;" edge="1" parent="1" source="OM5P2h9avd_9MFhmdvht-7" target="OM5P2h9avd_9MFhmdvht-11">
          <mxGeometry relative="1" as="geometry">
            <Array as="points">
              <mxPoint x="294" y="481" />
            </Array>
          </mxGeometry>
        </mxCell>
        <mxCell id="OM5P2h9avd_9MFhmdvht-6" style="edgeStyle=orthogonalEdgeStyle;rounded=0;orthogonalLoop=1;jettySize=auto;html=1;exitX=0.5;exitY=1;exitDx=0;exitDy=0;exitPerimeter=0;" edge="1" parent="1" source="OM5P2h9avd_9MFhmdvht-7" target="OM5P2h9avd_9MFhmdvht-9">
          <mxGeometry relative="1" as="geometry" />
        </mxCell>
        <mxCell id="OM5P2h9avd_9MFhmdvht-7" value="Chat Service" style="outlineConnect=0;dashed=0;verticalLabelPosition=bottom;verticalAlign=top;align=center;html=1;shape=mxgraph.aws3.ec2;fillColor=#F58534;gradientColor=none;" vertex="1" parent="1">
          <mxGeometry x="260" y="260" width="67.04" height="81.5" as="geometry" />
        </mxCell>
        <mxCell id="OM5P2h9avd_9MFhmdvht-33" style="edgeStyle=orthogonalEdgeStyle;rounded=0;orthogonalLoop=1;jettySize=auto;html=1;exitX=0.5;exitY=1;exitDx=0;exitDy=0;exitPerimeter=0;" edge="1" parent="1" source="OM5P2h9avd_9MFhmdvht-8" target="OM5P2h9avd_9MFhmdvht-7">
          <mxGeometry relative="1" as="geometry" />
        </mxCell>
        <mxCell id="OM5P2h9avd_9MFhmdvht-60" style="edgeStyle=orthogonalEdgeStyle;rounded=0;orthogonalLoop=1;jettySize=auto;html=1;exitX=0.5;exitY=0;exitDx=0;exitDy=0;exitPerimeter=0;" edge="1" parent="1" source="OM5P2h9avd_9MFhmdvht-8" target="OM5P2h9avd_9MFhmdvht-56">
          <mxGeometry relative="1" as="geometry" />
        </mxCell>
        <mxCell id="OM5P2h9avd_9MFhmdvht-8" value="User Service" style="outlineConnect=0;dashed=0;verticalLabelPosition=bottom;verticalAlign=top;align=center;html=1;shape=mxgraph.aws3.ec2;fillColor=#F58534;gradientColor=none;" vertex="1" parent="1">
          <mxGeometry x="260" y="-100" width="67.04" height="81.5" as="geometry" />
        </mxCell>
        <mxCell id="OM5P2h9avd_9MFhmdvht-9" value="Media Service" style="outlineConnect=0;dashed=0;verticalLabelPosition=bottom;verticalAlign=top;align=center;html=1;shape=mxgraph.aws3.ec2;fillColor=#F58534;gradientColor=none;" vertex="1" parent="1">
          <mxGeometry x="260" y="641.5" width="67.04" height="81.5" as="geometry" />
        </mxCell>
        <mxCell id="OM5P2h9avd_9MFhmdvht-46" style="edgeStyle=orthogonalEdgeStyle;rounded=0;orthogonalLoop=1;jettySize=auto;html=1;exitX=1;exitY=0.5;exitDx=0;exitDy=0;exitPerimeter=0;" edge="1" parent="1" source="OM5P2h9avd_9MFhmdvht-11" target="OM5P2h9avd_9MFhmdvht-45">
          <mxGeometry relative="1" as="geometry" />
        </mxCell>
        <mxCell id="OM5P2h9avd_9MFhmdvht-11" value="Presence Service" style="outlineConnect=0;dashed=0;verticalLabelPosition=bottom;verticalAlign=top;align=center;html=1;shape=mxgraph.aws3.ec2;fillColor=#F58534;gradientColor=none;" vertex="1" parent="1">
          <mxGeometry x="417.53" y="440" width="67.04" height="81.5" as="geometry" />
        </mxCell>
        <mxCell id="OM5P2h9avd_9MFhmdvht-12" style="edgeStyle=orthogonalEdgeStyle;rounded=0;orthogonalLoop=1;jettySize=auto;html=1;exitX=1;exitY=0.21;exitDx=0;exitDy=0;exitPerimeter=0;entryX=0;entryY=0.5;entryDx=0;entryDy=0;" edge="1" parent="1" source="OM5P2h9avd_9MFhmdvht-14" target="OM5P2h9avd_9MFhmdvht-22">
          <mxGeometry relative="1" as="geometry" />
        </mxCell>
        <mxCell id="OM5P2h9avd_9MFhmdvht-13" style="edgeStyle=orthogonalEdgeStyle;rounded=0;orthogonalLoop=1;jettySize=auto;html=1;exitX=1;exitY=0.79;exitDx=0;exitDy=0;exitPerimeter=0;" edge="1" parent="1" source="OM5P2h9avd_9MFhmdvht-14" target="OM5P2h9avd_9MFhmdvht-26">
          <mxGeometry relative="1" as="geometry" />
        </mxCell>
        <mxCell id="OM5P2h9avd_9MFhmdvht-14" value="Notification Service" style="outlineConnect=0;dashed=0;verticalLabelPosition=bottom;verticalAlign=top;align=center;html=1;shape=mxgraph.aws3.ec2;fillColor=#F58534;gradientColor=none;" vertex="1" parent="1">
          <mxGeometry x="840" y="260" width="67.04" height="81.5" as="geometry" />
        </mxCell>
        <mxCell id="OM5P2h9avd_9MFhmdvht-15" value="Object Store" style="outlineConnect=0;dashed=0;verticalLabelPosition=bottom;verticalAlign=top;align=center;html=1;shape=mxgraph.aws3.s3;fillColor=#E05243;gradientColor=none;" vertex="1" parent="1">
          <mxGeometry x="417.53" y="640" width="69.51" height="84.5" as="geometry" />
        </mxCell>
        <mxCell id="OM5P2h9avd_9MFhmdvht-16" value="Cache" style="image;sketch=0;aspect=fixed;html=1;points=[];align=center;fontSize=12;image=img/lib/mscae/Cache_Redis_Product.svg;" vertex="1" parent="1">
          <mxGeometry x="670" y="459.75" width="50" height="42" as="geometry" />
        </mxCell>
        <mxCell id="OM5P2h9avd_9MFhmdvht-17" value="Cache" style="image;sketch=0;aspect=fixed;html=1;points=[];align=center;fontSize=12;image=img/lib/mscae/Cache_Redis_Product.svg;" vertex="1" parent="1">
          <mxGeometry x="540" y="370" width="50" height="42" as="geometry" />
        </mxCell>
        <mxCell id="OM5P2h9avd_9MFhmdvht-18" style="edgeStyle=orthogonalEdgeStyle;rounded=0;orthogonalLoop=1;jettySize=auto;html=1;exitX=1;exitY=0.5;exitDx=0;exitDy=0;exitPerimeter=0;" edge="1" parent="1" source="OM5P2h9avd_9MFhmdvht-19" target="OM5P2h9avd_9MFhmdvht-14">
          <mxGeometry relative="1" as="geometry" />
        </mxCell>
        <mxCell id="OM5P2h9avd_9MFhmdvht-19" value="Queue (Kafka)" style="outlineConnect=0;dashed=0;verticalLabelPosition=bottom;verticalAlign=top;align=center;html=1;shape=mxgraph.aws3.queue;fillColor=#D9A741;gradientColor=none;" vertex="1" parent="1">
          <mxGeometry x="660" y="276.75" width="73.5" height="48" as="geometry" />
        </mxCell>
        <mxCell id="OM5P2h9avd_9MFhmdvht-22" value="" style="fillColor=#ffffff;strokeColor=#dddddd;shadow=1;strokeWidth=1;rounded=1;absoluteArcSize=1;arcSize=2;" vertex="1" parent="1">
          <mxGeometry x="1000" y="210" width="100" height="60" as="geometry" />
        </mxCell>
        <mxCell id="OM5P2h9avd_9MFhmdvht-23" value="FCM" style="sketch=0;dashed=0;connectable=0;html=1;fillColor=#5184F3;strokeColor=none;shape=mxgraph.gcp2.firebase;part=1;labelPosition=right;verticalLabelPosition=middle;align=left;verticalAlign=middle;spacingLeft=5;fontColor=#999999;fontSize=12;" vertex="1" parent="OM5P2h9avd_9MFhmdvht-22">
          <mxGeometry width="32.4" height="45" relative="1" as="geometry">
            <mxPoint x="5" y="7" as="offset" />
          </mxGeometry>
        </mxCell>
        <mxCell id="OM5P2h9avd_9MFhmdvht-26" value="APNS" style="dashed=0;outlineConnect=0;html=1;align=center;labelPosition=center;verticalLabelPosition=bottom;verticalAlign=top;shape=mxgraph.weblogos.apple;fillColor=#bac8d3;strokeColor=#23445d;" vertex="1" parent="1">
          <mxGeometry x="1018.8" y="340" width="62.400000000000006" height="76.2" as="geometry" />
        </mxCell>
        <mxCell id="OM5P2h9avd_9MFhmdvht-27" style="edgeStyle=orthogonalEdgeStyle;rounded=0;orthogonalLoop=1;jettySize=auto;html=1;exitX=1;exitY=0.5;exitDx=0;exitDy=0;exitPerimeter=0;entryX=0;entryY=0.5;entryDx=0;entryDy=0;entryPerimeter=0;" edge="1" parent="1" source="OM5P2h9avd_9MFhmdvht-9" target="OM5P2h9avd_9MFhmdvht-15">
          <mxGeometry relative="1" as="geometry" />
        </mxCell>
        <mxCell id="OM5P2h9avd_9MFhmdvht-31" style="edgeStyle=orthogonalEdgeStyle;rounded=0;orthogonalLoop=1;jettySize=auto;html=1;exitX=0.65;exitY=0.5;exitDx=0;exitDy=0;exitPerimeter=0;" edge="1" parent="1" source="OM5P2h9avd_9MFhmdvht-29" target="OM5P2h9avd_9MFhmdvht-7">
          <mxGeometry relative="1" as="geometry" />
        </mxCell>
        <mxCell id="OM5P2h9avd_9MFhmdvht-29" value="API Gateway" style="outlineConnect=0;dashed=0;verticalLabelPosition=bottom;verticalAlign=top;align=center;html=1;shape=mxgraph.aws3.api_gateway;fillColor=#D9A741;gradientColor=none;" vertex="1" parent="1">
          <mxGeometry x="50" y="254.25" width="76.5" height="93" as="geometry" />
        </mxCell>
        <mxCell id="OM5P2h9avd_9MFhmdvht-32" style="edgeStyle=orthogonalEdgeStyle;rounded=0;orthogonalLoop=1;jettySize=auto;html=1;exitX=0.5;exitY=0;exitDx=0;exitDy=0;exitPerimeter=0;entryX=0;entryY=0.5;entryDx=0;entryDy=0;entryPerimeter=0;" edge="1" parent="1" source="OM5P2h9avd_9MFhmdvht-29" target="OM5P2h9avd_9MFhmdvht-8">
          <mxGeometry relative="1" as="geometry" />
        </mxCell>
        <mxCell id="OM5P2h9avd_9MFhmdvht-34" style="edgeStyle=orthogonalEdgeStyle;rounded=0;orthogonalLoop=1;jettySize=auto;html=1;exitX=0;exitY=0.5;exitDx=0;exitDy=0;exitPerimeter=0;entryX=0.65;entryY=0.5;entryDx=0;entryDy=0;entryPerimeter=0;" edge="1" parent="1" source="OM5P2h9avd_9MFhmdvht-7" target="OM5P2h9avd_9MFhmdvht-29">
          <mxGeometry relative="1" as="geometry" />
        </mxCell>
        <mxCell id="OM5P2h9avd_9MFhmdvht-35" style="edgeStyle=orthogonalEdgeStyle;rounded=0;orthogonalLoop=1;jettySize=auto;html=1;exitX=0.98;exitY=0.51;exitDx=0;exitDy=0;exitPerimeter=0;entryX=0.35;entryY=0.5;entryDx=0;entryDy=0;entryPerimeter=0;" edge="1" parent="1" source="OM5P2h9avd_9MFhmdvht-2" target="OM5P2h9avd_9MFhmdvht-29">
          <mxGeometry relative="1" as="geometry" />
        </mxCell>
        <mxCell id="OM5P2h9avd_9MFhmdvht-37" style="edgeStyle=orthogonalEdgeStyle;rounded=0;orthogonalLoop=1;jettySize=auto;html=1;exitX=0.5;exitY=0;exitDx=0;exitDy=0;exitPerimeter=0;entryX=0.5;entryY=1;entryDx=0;entryDy=0;entryPerimeter=0;" edge="1" parent="1" source="OM5P2h9avd_9MFhmdvht-9" target="OM5P2h9avd_9MFhmdvht-7">
          <mxGeometry relative="1" as="geometry" />
        </mxCell>
        <mxCell id="OM5P2h9avd_9MFhmdvht-38" style="edgeStyle=orthogonalEdgeStyle;rounded=0;orthogonalLoop=1;jettySize=auto;html=1;exitX=0;exitY=0.5;exitDx=0;exitDy=0;exitPerimeter=0;entryX=0.5;entryY=1;entryDx=0;entryDy=0;entryPerimeter=0;" edge="1" parent="1" source="OM5P2h9avd_9MFhmdvht-11" target="OM5P2h9avd_9MFhmdvht-7">
          <mxGeometry relative="1" as="geometry" />
        </mxCell>
        <mxCell id="OM5P2h9avd_9MFhmdvht-42" value="CDN" style="editableCssRules=.*;html=1;shape=image;verticalLabelPosition=bottom;labelBackgroundColor=#ffffff;verticalAlign=top;aspect=fixed;imageAspect=0;image=data:image/svg+xml,PHN2ZyB4bWxucz0iaHR0cDovL3d3dy53My5vcmcvMjAwMC9zdmciIHhtbG5zOnY9Imh0dHBzOi8vdmVjdGEuaW8vbmFubyIgd2lkdGg9IjIwIiBoZWlnaHQ9IjIwIiB2aWV3Qm94PSIwIDAgMjAgMjAiPiYjeGE7CTxzdHlsZSB0eXBlPSJ0ZXh0L2NzcyI+JiN4YTsJLnN0MHtmaWxsOiM0Mjg1ZjQ7fSYjeGE7CS5zdDF7ZmlsbDojNjY5ZGY2O30mI3hhOwkuc3Qye2ZpbGw6I2FlY2JmYTt9JiN4YTsJPC9zdHlsZT4mI3hhOwk8cGF0aCBjbGFzcz0ic3QxIiBkPSJNMTMuMTMgNS42M1YzLjIxTDEwIDB2Mi40MXptMy43NSA3LjVMMjAgMTBoLTIuNWwtMy4xMiAzLjEzem0tMTMuNzUgMEwwIDEwaDIuNWwzLjEzIDMuMTN6bTEwIDEuMjV2Mi40MUwxMCAyMHYtMi40MXoiIGZpbGwtcnVsZT0iZXZlbm9kZCIvPiYjeGE7CTxwYXRoIGNsYXNzPSJzdDIiIGQ9Ik02Ljg4IDUuNjNMMTAgMi40MVYwTDYuODggMy4yMXpNMTcuNSAxMEgyMGwtMy4xMi0zLjEyaC0yLjV6bS0xNSAwSDBsMy4xMy0zLjEyaDIuNXptNC4zOCA0LjM4TDEwIDE3LjU5VjIwbC0zLjEyLTMuMjF6bTAtNy41aDYuMjV2Ni4yNUg2Ljg4eiIgZmlsbC1ydWxlPSJldmVub2RkIi8+JiN4YTsJPHBhdGggY2xhc3M9InN0MSIgZD0iTTYuODggMTMuMTNsNi4yNS02LjI1djYuMjV6IiBmaWxsLXJ1bGU9ImV2ZW5vZGQiLz4mI3hhOwk8cGF0aCBjbGFzcz0ic3QwIiBkPSJNMTAgMTBsMy4xMy0zLjEydjYuMjV6IiBmaWxsLXJ1bGU9ImV2ZW5vZGQiLz4mI3hhOzwvc3ZnPg==;" vertex="1" parent="1">
          <mxGeometry x="58.25" y="652.25" width="60" height="60" as="geometry" />
        </mxCell>
        <mxCell id="OM5P2h9avd_9MFhmdvht-43" style="edgeStyle=orthogonalEdgeStyle;rounded=0;orthogonalLoop=1;jettySize=auto;html=1;exitX=1;exitY=0.5;exitDx=0;exitDy=0;entryX=0;entryY=0.5;entryDx=0;entryDy=0;entryPerimeter=0;" edge="1" parent="1" source="OM5P2h9avd_9MFhmdvht-42" target="OM5P2h9avd_9MFhmdvht-9">
          <mxGeometry relative="1" as="geometry" />
        </mxCell>
        <mxCell id="OM5P2h9avd_9MFhmdvht-47" style="edgeStyle=orthogonalEdgeStyle;rounded=0;orthogonalLoop=1;jettySize=auto;html=1;exitX=1;exitY=0.5;exitDx=0;exitDy=0;exitPerimeter=0;" edge="1" parent="1" source="OM5P2h9avd_9MFhmdvht-45" target="OM5P2h9avd_9MFhmdvht-16">
          <mxGeometry relative="1" as="geometry" />
        </mxCell>
        <mxCell id="OM5P2h9avd_9MFhmdvht-45" value="LB" style="outlineConnect=0;dashed=0;verticalLabelPosition=bottom;verticalAlign=top;align=center;html=1;shape=mxgraph.aws3.classic_load_balancer;fillColor=#F58536;gradientColor=none;" vertex="1" parent="1">
          <mxGeometry x="550" y="444.75" width="69" height="72" as="geometry" />
        </mxCell>
        <mxCell id="OM5P2h9avd_9MFhmdvht-48" value="LBs" style="outlineConnect=0;dashed=0;verticalLabelPosition=bottom;verticalAlign=top;align=center;html=1;shape=mxgraph.aws3.classic_load_balancer;fillColor=#F58536;gradientColor=none;" vertex="1" parent="1">
          <mxGeometry x="424.99999999999994" y="264.75" width="69" height="72" as="geometry" />
        </mxCell>
        <mxCell id="OM5P2h9avd_9MFhmdvht-49" style="edgeStyle=orthogonalEdgeStyle;rounded=0;orthogonalLoop=1;jettySize=auto;html=1;exitX=1;exitY=0.5;exitDx=0;exitDy=0;exitPerimeter=0;entryX=0;entryY=0.5;entryDx=0;entryDy=0;entryPerimeter=0;" edge="1" parent="1" source="OM5P2h9avd_9MFhmdvht-7" target="OM5P2h9avd_9MFhmdvht-48">
          <mxGeometry relative="1" as="geometry" />
        </mxCell>
        <mxCell id="OM5P2h9avd_9MFhmdvht-52" style="edgeStyle=orthogonalEdgeStyle;rounded=0;orthogonalLoop=1;jettySize=auto;html=1;exitX=0.5;exitY=1;exitDx=0;exitDy=0;exitPerimeter=0;entryX=0;entryY=0.676;entryDx=0;entryDy=0;entryPerimeter=0;" edge="1" parent="1" source="OM5P2h9avd_9MFhmdvht-48" target="OM5P2h9avd_9MFhmdvht-17">
          <mxGeometry relative="1" as="geometry" />
        </mxCell>
        <mxCell id="OM5P2h9avd_9MFhmdvht-53" style="edgeStyle=orthogonalEdgeStyle;rounded=0;orthogonalLoop=1;jettySize=auto;html=1;exitX=1;exitY=0.5;exitDx=0;exitDy=0;exitPerimeter=0;entryX=0;entryY=0.5;entryDx=0;entryDy=0;entryPerimeter=0;" edge="1" parent="1" source="OM5P2h9avd_9MFhmdvht-48" target="OM5P2h9avd_9MFhmdvht-19">
          <mxGeometry relative="1" as="geometry" />
        </mxCell>
        <mxCell id="OM5P2h9avd_9MFhmdvht-56" value="" style="swimlane;startSize=0;" vertex="1" parent="1">
          <mxGeometry x="450" y="-320" width="275.08" height="220" as="geometry" />
        </mxCell>
        <mxCell id="OM5P2h9avd_9MFhmdvht-20" value="&lt;span&gt;&lt;font&gt;DB&lt;/font&gt;&lt;/span&gt;" style="html=1;verticalLabelPosition=bottom;align=center;labelBackgroundColor=#ffffff;verticalAlign=top;strokeWidth=2;strokeColor=#0080F0;shadow=0;dashed=0;shape=mxgraph.ios7.icons.data;" vertex="1" parent="OM5P2h9avd_9MFhmdvht-56">
          <mxGeometry x="29.999999999999964" y="70" width="57.73" height="70" as="geometry" />
        </mxCell>
        <mxCell id="OM5P2h9avd_9MFhmdvht-55" value="" style="outlineConnect=0;dashed=0;verticalLabelPosition=bottom;verticalAlign=top;align=center;html=1;shape=mxgraph.aws3.rds_db_instance_read_replica;fillColor=#2E73B8;gradientColor=none;" vertex="1" parent="OM5P2h9avd_9MFhmdvht-56">
          <mxGeometry x="180" y="20" width="49.5" height="66" as="geometry" />
        </mxCell>
        <mxCell id="OM5P2h9avd_9MFhmdvht-57" value="" style="outlineConnect=0;dashed=0;verticalLabelPosition=bottom;verticalAlign=top;align=center;html=1;shape=mxgraph.aws3.rds_db_instance_read_replica;fillColor=#2E73B8;gradientColor=none;" vertex="1" parent="OM5P2h9avd_9MFhmdvht-56">
          <mxGeometry x="180" y="130" width="49.5" height="66" as="geometry" />
        </mxCell>
        <mxCell id="OM5P2h9avd_9MFhmdvht-58" value="" style="endArrow=classic;html=1;rounded=0;exitX=1.046;exitY=0.389;exitDx=0;exitDy=0;exitPerimeter=0;entryX=0;entryY=0.5;entryDx=0;entryDy=0;entryPerimeter=0;" edge="1" parent="OM5P2h9avd_9MFhmdvht-56" source="OM5P2h9avd_9MFhmdvht-20" target="OM5P2h9avd_9MFhmdvht-55">
          <mxGeometry width="50" height="50" relative="1" as="geometry">
            <mxPoint x="220" y="330" as="sourcePoint" />
            <mxPoint x="270" y="280" as="targetPoint" />
          </mxGeometry>
        </mxCell>
        <mxCell id="OM5P2h9avd_9MFhmdvht-59" value="" style="endArrow=classic;html=1;rounded=0;exitX=0.977;exitY=0.446;exitDx=0;exitDy=0;exitPerimeter=0;entryX=0;entryY=0.5;entryDx=0;entryDy=0;entryPerimeter=0;" edge="1" parent="OM5P2h9avd_9MFhmdvht-56" source="OM5P2h9avd_9MFhmdvht-20" target="OM5P2h9avd_9MFhmdvht-57">
          <mxGeometry width="50" height="50" relative="1" as="geometry">
            <mxPoint x="124" y="127" as="sourcePoint" />
            <mxPoint x="220" y="83" as="targetPoint" />
          </mxGeometry>
        </mxCell>
        <mxCell id="OM5P2h9avd_9MFhmdvht-61" value="" style="swimlane;startSize=0;" vertex="1" parent="1">
          <mxGeometry x="580" y="-18.5" width="275.08" height="220" as="geometry" />
        </mxCell>
        <mxCell id="OM5P2h9avd_9MFhmdvht-62" value="&lt;span&gt;&lt;font&gt;DB&lt;/font&gt;&lt;/span&gt;" style="html=1;verticalLabelPosition=bottom;align=center;labelBackgroundColor=#ffffff;verticalAlign=top;strokeWidth=2;strokeColor=#0080F0;shadow=0;dashed=0;shape=mxgraph.ios7.icons.data;" vertex="1" parent="OM5P2h9avd_9MFhmdvht-61">
          <mxGeometry x="29.999999999999964" y="70" width="57.73" height="70" as="geometry" />
        </mxCell>
        <mxCell id="OM5P2h9avd_9MFhmdvht-63" value="" style="outlineConnect=0;dashed=0;verticalLabelPosition=bottom;verticalAlign=top;align=center;html=1;shape=mxgraph.aws3.rds_db_instance_read_replica;fillColor=#2E73B8;gradientColor=none;" vertex="1" parent="OM5P2h9avd_9MFhmdvht-61">
          <mxGeometry x="180" y="20" width="49.5" height="66" as="geometry" />
        </mxCell>
        <mxCell id="OM5P2h9avd_9MFhmdvht-64" value="" style="outlineConnect=0;dashed=0;verticalLabelPosition=bottom;verticalAlign=top;align=center;html=1;shape=mxgraph.aws3.rds_db_instance_read_replica;fillColor=#2E73B8;gradientColor=none;" vertex="1" parent="OM5P2h9avd_9MFhmdvht-61">
          <mxGeometry x="180" y="130" width="49.5" height="66" as="geometry" />
        </mxCell>
        <mxCell id="OM5P2h9avd_9MFhmdvht-65" value="" style="endArrow=classic;html=1;rounded=0;exitX=1.046;exitY=0.389;exitDx=0;exitDy=0;exitPerimeter=0;entryX=0;entryY=0.5;entryDx=0;entryDy=0;entryPerimeter=0;" edge="1" parent="OM5P2h9avd_9MFhmdvht-61" source="OM5P2h9avd_9MFhmdvht-62" target="OM5P2h9avd_9MFhmdvht-63">
          <mxGeometry width="50" height="50" relative="1" as="geometry">
            <mxPoint x="220" y="330" as="sourcePoint" />
            <mxPoint x="270" y="280" as="targetPoint" />
          </mxGeometry>
        </mxCell>
        <mxCell id="OM5P2h9avd_9MFhmdvht-66" value="" style="endArrow=classic;html=1;rounded=0;exitX=0.977;exitY=0.446;exitDx=0;exitDy=0;exitPerimeter=0;entryX=0;entryY=0.5;entryDx=0;entryDy=0;entryPerimeter=0;" edge="1" parent="OM5P2h9avd_9MFhmdvht-61" source="OM5P2h9avd_9MFhmdvht-62" target="OM5P2h9avd_9MFhmdvht-64">
          <mxGeometry width="50" height="50" relative="1" as="geometry">
            <mxPoint x="124" y="127" as="sourcePoint" />
            <mxPoint x="220" y="83" as="targetPoint" />
          </mxGeometry>
        </mxCell>
        <mxCell id="OM5P2h9avd_9MFhmdvht-67" style="edgeStyle=orthogonalEdgeStyle;rounded=0;orthogonalLoop=1;jettySize=auto;html=1;exitX=0.5;exitY=0;exitDx=0;exitDy=0;exitPerimeter=0;entryX=0;entryY=0.444;entryDx=0;entryDy=0;entryPerimeter=0;" edge="1" parent="1" source="OM5P2h9avd_9MFhmdvht-48" target="OM5P2h9avd_9MFhmdvht-61">
          <mxGeometry relative="1" as="geometry" />
        </mxCell>
      </root>
    </mxGraphModel>
  </diagram>
</mxfile>
